<mxfile host="app.diagrams.net" agent="Mozilla/5.0 (Windows NT 10.0; Win64; x64) AppleWebKit/537.36 (KHTML, like Gecko) Chrome/128.0.0.0 Safari/537.36 Edg/128.0.0.0" version="24.7.7">
  <diagram id="2Edrh2dbVa9gK9jKkyzz" name="第 1 页">
    <mxGraphModel dx="1160" dy="507" grid="0" gridSize="10" guides="1" tooltips="1" connect="1" arrows="1" fold="1" page="1" pageScale="1" pageWidth="50000" pageHeight="50000" math="0" shadow="0">
      <root>
        <mxCell id="0" />
        <mxCell id="1" parent="0" />
        <mxCell id="g1J860Th6vdiFnxwKssL-17" value="1.source 环境" style="rounded=0;whiteSpace=wrap;html=1;fillColor=#B0B0B0;" parent="1" vertex="1">
          <mxGeometry x="452" y="551" width="120" height="60" as="geometry" />
        </mxCell>
        <mxCell id="g1J860Th6vdiFnxwKssL-18" value="新建工作目录" style="rounded=0;whiteSpace=wrap;html=1;fillColor=#B0B0B0;" parent="1" vertex="1">
          <mxGeometry x="256" y="622" width="120" height="60" as="geometry" />
        </mxCell>
        <mxCell id="g1J860Th6vdiFnxwKssL-22" value="" style="group" parent="1" vertex="1" connectable="0">
          <mxGeometry x="509" y="686" width="149" height="91" as="geometry" />
        </mxCell>
        <mxCell id="g1J860Th6vdiFnxwKssL-20" value="" style="shape=note;whiteSpace=wrap;html=1;backgroundOutline=1;darkOpacity=0.05;rotation=-91;" parent="g1J860Th6vdiFnxwKssL-22" vertex="1">
          <mxGeometry x="21.356202223272163" y="-16.022682548913213" width="106.28759555345573" height="123.04536509782636" as="geometry" />
        </mxCell>
        <mxCell id="g1J860Th6vdiFnxwKssL-21" value="&lt;font data-sider-select-id=&quot;ac3c47cb-9aac-4c60-aa73-1e2a86142721&quot; style=&quot;font-size: 11px;&quot;&gt;2.添加并修改&lt;/font&gt;&lt;div&gt;&lt;font data-sider-select-id=&quot;ac3c47cb-9aac-4c60-aa73-1e2a86142721&quot; style=&quot;font-size: 11px;&quot;&gt;user_config.yaml文件&lt;/font&gt;&lt;/div&gt;" style="text;strokeColor=none;fillColor=none;html=1;fontSize=24;fontStyle=1;verticalAlign=middle;align=center;" parent="g1J860Th6vdiFnxwKssL-22" vertex="1">
          <mxGeometry x="33.13868183291596" y="34.13729221071922" width="90.84409876363736" height="30.381571629092928" as="geometry" />
        </mxCell>
        <mxCell id="g1J860Th6vdiFnxwKssL-23" value="3.edp_ini" style="rounded=1;whiteSpace=wrap;html=1;" parent="1" vertex="1">
          <mxGeometry x="643" y="545" width="120" height="60" as="geometry" />
        </mxCell>
        <mxCell id="g1J860Th6vdiFnxwKssL-24" value="5.edp -g" style="rounded=1;whiteSpace=wrap;html=1;fillColor=#858585;" parent="1" vertex="1">
          <mxGeometry x="846" y="695" width="120" height="60" as="geometry" />
        </mxCell>
        <mxCell id="g1J860Th6vdiFnxwKssL-25" value="" style="shape=flexArrow;endArrow=classic;html=1;rounded=0;exitX=1;exitY=0.5;exitDx=0;exitDy=0;fillColor=#ADADAD;entryX=0;entryY=0.5;entryDx=0;entryDy=0;" parent="1" source="g1J860Th6vdiFnxwKssL-18" target="oWbEBl2o8Fg8DfM6E3F1-1" edge="1">
          <mxGeometry width="50" height="50" relative="1" as="geometry">
            <mxPoint x="443" y="663" as="sourcePoint" />
            <mxPoint x="994" y="645" as="targetPoint" />
          </mxGeometry>
        </mxCell>
        <mxCell id="g1J860Th6vdiFnxwKssL-26" value="" style="endArrow=classic;html=1;rounded=0;exitX=0;exitY=1;exitDx=0;exitDy=0;" parent="1" source="g1J860Th6vdiFnxwKssL-17" edge="1">
          <mxGeometry width="50" height="50" relative="1" as="geometry">
            <mxPoint x="713" y="447" as="sourcePoint" />
            <mxPoint x="408" y="646" as="targetPoint" />
          </mxGeometry>
        </mxCell>
        <mxCell id="g1J860Th6vdiFnxwKssL-28" value="" style="endArrow=classic;html=1;rounded=0;exitX=0;exitY=0;exitDx=54.17406896179715;exitDy=0;exitPerimeter=0;" parent="1" source="g1J860Th6vdiFnxwKssL-20" edge="1">
          <mxGeometry width="50" height="50" relative="1" as="geometry">
            <mxPoint x="713" y="568" as="sourcePoint" />
            <mxPoint x="455" y="654" as="targetPoint" />
          </mxGeometry>
        </mxCell>
        <mxCell id="g1J860Th6vdiFnxwKssL-29" value="" style="endArrow=classic;html=1;rounded=0;exitX=0.5;exitY=1;exitDx=0;exitDy=0;" parent="1" source="g1J860Th6vdiFnxwKssL-23" edge="1">
          <mxGeometry width="50" height="50" relative="1" as="geometry">
            <mxPoint x="713" y="568" as="sourcePoint" />
            <mxPoint x="682" y="640" as="targetPoint" />
          </mxGeometry>
        </mxCell>
        <mxCell id="g1J860Th6vdiFnxwKssL-30" value="" style="endArrow=classic;html=1;rounded=0;exitX=0;exitY=0;exitDx=0;exitDy=0;" parent="1" source="g1J860Th6vdiFnxwKssL-24" edge="1">
          <mxGeometry width="50" height="50" relative="1" as="geometry">
            <mxPoint x="713" y="568" as="sourcePoint" />
            <mxPoint x="831" y="654" as="targetPoint" />
          </mxGeometry>
        </mxCell>
        <mxCell id="g1J860Th6vdiFnxwKssL-31" value="生成make file文件" style="ellipse;whiteSpace=wrap;html=1;" parent="1" vertex="1">
          <mxGeometry x="936" y="817" width="77" height="77" as="geometry" />
        </mxCell>
        <mxCell id="g1J860Th6vdiFnxwKssL-32" value="生成Flow目录" style="ellipse;whiteSpace=wrap;html=1;" parent="1" vertex="1">
          <mxGeometry x="769" y="435" width="77" height="77" as="geometry" />
        </mxCell>
        <mxCell id="g1J860Th6vdiFnxwKssL-33" value="" style="endArrow=classic;html=1;rounded=0;exitX=0.75;exitY=0;exitDx=0;exitDy=0;entryX=0;entryY=1;entryDx=0;entryDy=0;" parent="1" source="g1J860Th6vdiFnxwKssL-23" target="g1J860Th6vdiFnxwKssL-32" edge="1">
          <mxGeometry width="50" height="50" relative="1" as="geometry">
            <mxPoint x="713" y="690" as="sourcePoint" />
            <mxPoint x="763" y="640" as="targetPoint" />
          </mxGeometry>
        </mxCell>
        <mxCell id="g1J860Th6vdiFnxwKssL-34" value="" style="endArrow=classic;html=1;rounded=0;exitX=0.5;exitY=1;exitDx=0;exitDy=0;" parent="1" source="g1J860Th6vdiFnxwKssL-24" target="g1J860Th6vdiFnxwKssL-31" edge="1">
          <mxGeometry width="50" height="50" relative="1" as="geometry">
            <mxPoint x="713" y="690" as="sourcePoint" />
            <mxPoint x="763" y="640" as="targetPoint" />
          </mxGeometry>
        </mxCell>
        <mxCell id="oWbEBl2o8Fg8DfM6E3F1-1" value="make" style="rounded=0;whiteSpace=wrap;html=1;" parent="1" vertex="1">
          <mxGeometry x="979" y="629" width="37" height="38" as="geometry" />
        </mxCell>
        <mxCell id="oWbEBl2o8Fg8DfM6E3F1-2" value="" style="shape=curlyBracket;whiteSpace=wrap;html=1;rounded=1;labelPosition=left;verticalLabelPosition=middle;align=right;verticalAlign=middle;" parent="1" vertex="1">
          <mxGeometry x="1029" y="555.62" width="20" height="239.38" as="geometry" />
        </mxCell>
        <mxCell id="oWbEBl2o8Fg8DfM6E3F1-46" value="" style="group" parent="1" vertex="1" connectable="0">
          <mxGeometry x="1415" y="205" width="125" height="199.25" as="geometry" />
        </mxCell>
        <mxCell id="oWbEBl2o8Fg8DfM6E3F1-40" value="&lt;div&gt;&lt;div&gt;&lt;br&gt;&lt;/div&gt;&lt;/div&gt;" style="rounded=0;whiteSpace=wrap;html=1;" parent="oWbEBl2o8Fg8DfM6E3F1-46" vertex="1">
          <mxGeometry width="125" height="199.25" as="geometry" />
        </mxCell>
        <mxCell id="oWbEBl2o8Fg8DfM6E3F1-41" value="" style="line;strokeWidth=2;html=1;" parent="oWbEBl2o8Fg8DfM6E3F1-46" vertex="1">
          <mxGeometry x="9.00900900900901" y="40.13669064748201" width="106.98198198198199" height="14.334532374100718" as="geometry" />
        </mxCell>
        <mxCell id="oWbEBl2o8Fg8DfM6E3F1-47" value="&lt;b data-sider-select-id=&quot;d9ca1631-cc6f-4ed3-a639-94c9e689825b&quot;&gt;FP_MODE&lt;/b&gt;" style="text;html=1;align=center;verticalAlign=middle;resizable=0;points=[];autosize=1;strokeColor=none;fillColor=none;" parent="oWbEBl2o8Fg8DfM6E3F1-46" vertex="1">
          <mxGeometry x="20.997207207207207" y="12.939229309465814" width="76" height="26" as="geometry" />
        </mxCell>
        <mxCell id="oWbEBl2o8Fg8DfM6E3F1-54" value="&lt;span data-sider-select-id=&quot;99fa7711-8cff-403c-a371-6c08e8c9f001&quot; style=&quot;text-align: left; text-wrap: wrap;&quot;&gt;&lt;font data-sider-select-id=&quot;bf49ba30-4566-4030-b8a1-2bf71007fc2c&quot; style=&quot;font-size: 12px;&quot;&gt;2.FPDummy&lt;/font&gt;&lt;/span&gt;" style="text;html=1;align=center;verticalAlign=middle;resizable=0;points=[];autosize=1;strokeColor=none;fillColor=none;" parent="oWbEBl2o8Fg8DfM6E3F1-46" vertex="1">
          <mxGeometry x="9.009999999999991" y="74.78412073490814" width="85" height="26" as="geometry" />
        </mxCell>
        <mxCell id="oWbEBl2o8Fg8DfM6E3F1-49" value="&lt;font data-sider-select-id=&quot;fd33093a-4f0a-4e13-8372-76dc305c88ec&quot; style=&quot;font-size: 12px;&quot;&gt;3.CbFPDFM&lt;/font&gt;" style="text;html=1;align=center;verticalAlign=middle;resizable=0;points=[];autosize=1;strokeColor=none;fillColor=none;" parent="oWbEBl2o8Fg8DfM6E3F1-46" vertex="1">
          <mxGeometry x="9.009999999999991" y="97.79785503880353" width="85" height="26" as="geometry" />
        </mxCell>
        <mxCell id="oWbEBl2o8Fg8DfM6E3F1-50" value="&lt;font data-sider-select-id=&quot;a13554c6-6b40-4dca-953b-ee59fdd4d036&quot; style=&quot;font-size: 12px;&quot;&gt;4.CbFPPGShort&lt;/font&gt;" style="text;html=1;align=center;verticalAlign=middle;resizable=0;points=[];autosize=1;strokeColor=none;fillColor=none;" parent="oWbEBl2o8Fg8DfM6E3F1-46" vertex="1">
          <mxGeometry x="9.009999999999991" y="124.98884514435696" width="105" height="26" as="geometry" />
        </mxCell>
        <mxCell id="oWbEBl2o8Fg8DfM6E3F1-51" value="&lt;font data-sider-select-id=&quot;acddb4a8-8911-43b6-9aab-9c53931a1b9e&quot; style=&quot;font-size: 12px;&quot;&gt;5.CbFPDRC&lt;/font&gt;" style="text;html=1;align=center;verticalAlign=middle;resizable=0;points=[];autosize=1;strokeColor=none;fillColor=none;" parent="oWbEBl2o8Fg8DfM6E3F1-46" vertex="1">
          <mxGeometry x="9.01" y="152.18307086614172" width="85" height="26" as="geometry" />
        </mxCell>
        <mxCell id="oWbEBl2o8Fg8DfM6E3F1-52" value="&lt;font data-sider-select-id=&quot;4f210d57-bb04-4a2b-893e-a420c23c2cde&quot; style=&quot;font-size: 12px;&quot;&gt;6.CbFPPERC&lt;/font&gt;" style="text;html=1;align=center;verticalAlign=middle;resizable=0;points=[];autosize=1;strokeColor=none;fillColor=none;" parent="oWbEBl2o8Fg8DfM6E3F1-46" vertex="1">
          <mxGeometry x="9.009999999999991" y="172.0557742782152" width="92" height="26" as="geometry" />
        </mxCell>
        <mxCell id="oWbEBl2o8Fg8DfM6E3F1-53" value="&lt;div&gt;&lt;span style=&quot;text-align: left;&quot; data-sider-select-id=&quot;d6f26f39-66fe-4509-8251-e858bef17e57&quot;&gt;&lt;font data-sider-select-id=&quot;4eeca90d-0ec9-4b86-97ac-9a9df71933e0&quot; style=&quot;font-size: 12px;&quot;&gt;1.CbFPIPMerge&lt;/font&gt;&lt;/span&gt;&lt;/div&gt;&lt;div&gt;&lt;br style=&quot;text-wrap: wrap;&quot;&gt;&lt;/div&gt;" style="text;html=1;align=center;verticalAlign=middle;resizable=0;points=[];autosize=1;strokeColor=none;fillColor=none;" parent="oWbEBl2o8Fg8DfM6E3F1-46" vertex="1">
          <mxGeometry x="9.009999999999991" y="51.512139107611546" width="104" height="41" as="geometry" />
        </mxCell>
        <mxCell id="_2UC7QPBTQOqAa1snjqE-1" value="&lt;font style=&quot;font-size: 18px;&quot;&gt;floorplan&lt;/font&gt;" style="text;html=1;align=center;verticalAlign=middle;resizable=0;points=[];autosize=1;strokeColor=none;fillColor=none;" parent="1" vertex="1">
          <mxGeometry x="1059" y="590" width="87" height="34" as="geometry" />
        </mxCell>
        <mxCell id="_2UC7QPBTQOqAa1snjqE-2" value="4.cd Flow的main目录" style="rounded=1;whiteSpace=wrap;html=1;" parent="1" vertex="1">
          <mxGeometry x="692" y="739" width="120" height="60" as="geometry" />
        </mxCell>
        <mxCell id="_2UC7QPBTQOqAa1snjqE-3" value="" style="endArrow=classic;html=1;rounded=0;exitX=0.5;exitY=0;exitDx=0;exitDy=0;" parent="1" source="_2UC7QPBTQOqAa1snjqE-2" edge="1">
          <mxGeometry width="50" height="50" relative="1" as="geometry">
            <mxPoint x="706" y="687" as="sourcePoint" />
            <mxPoint x="779" y="655" as="targetPoint" />
          </mxGeometry>
        </mxCell>
        <mxCell id="_2UC7QPBTQOqAa1snjqE-4" value="&lt;font style=&quot;font-size: 18px;&quot;&gt;place&lt;/font&gt;" style="text;html=1;align=center;verticalAlign=middle;resizable=0;points=[];autosize=1;strokeColor=none;fillColor=none;" parent="1" vertex="1">
          <mxGeometry x="1059" y="622" width="61" height="34" as="geometry" />
        </mxCell>
        <mxCell id="_2UC7QPBTQOqAa1snjqE-5" value="&lt;font style=&quot;font-size: 18px;&quot;&gt;cts&lt;/font&gt;" style="text;html=1;align=center;verticalAlign=middle;resizable=0;points=[];autosize=1;strokeColor=none;fillColor=none;" parent="1" vertex="1">
          <mxGeometry x="1059" y="658.31" width="41" height="34" as="geometry" />
        </mxCell>
        <mxCell id="_2UC7QPBTQOqAa1snjqE-6" value="&lt;font style=&quot;font-size: 18px;&quot;&gt;postcts&lt;/font&gt;" style="text;html=1;align=center;verticalAlign=middle;resizable=0;points=[];autosize=1;strokeColor=none;fillColor=none;" parent="1" vertex="1">
          <mxGeometry x="1059" y="690" width="75" height="34" as="geometry" />
        </mxCell>
        <mxCell id="_2UC7QPBTQOqAa1snjqE-7" value="&lt;font style=&quot;font-size: 18px;&quot;&gt;route&lt;/font&gt;" style="text;html=1;align=center;verticalAlign=middle;resizable=0;points=[];autosize=1;strokeColor=none;fillColor=none;" parent="1" vertex="1">
          <mxGeometry x="1059" y="724" width="59" height="34" as="geometry" />
        </mxCell>
        <mxCell id="_2UC7QPBTQOqAa1snjqE-8" value="&lt;font style=&quot;font-size: 18px;&quot;&gt;postroute&lt;/font&gt;" style="text;html=1;align=center;verticalAlign=middle;resizable=0;points=[];autosize=1;strokeColor=none;fillColor=none;" parent="1" vertex="1">
          <mxGeometry x="1059" y="760" width="93" height="34" as="geometry" />
        </mxCell>
        <mxCell id="_2UC7QPBTQOqAa1snjqE-10" value="1.source 环境" style="rounded=0;whiteSpace=wrap;html=1;fillColor=#B0B0B0;" parent="1" vertex="1">
          <mxGeometry x="432" y="1187" width="120" height="60" as="geometry" />
        </mxCell>
        <mxCell id="_2UC7QPBTQOqAa1snjqE-11" value="新建工作目录" style="rounded=0;whiteSpace=wrap;html=1;fillColor=#B0B0B0;" parent="1" vertex="1">
          <mxGeometry x="236" y="1258" width="120" height="60" as="geometry" />
        </mxCell>
        <mxCell id="_2UC7QPBTQOqAa1snjqE-12" value="" style="group" parent="1" vertex="1" connectable="0">
          <mxGeometry x="489" y="1322" width="149" height="91" as="geometry" />
        </mxCell>
        <mxCell id="_2UC7QPBTQOqAa1snjqE-13" value="" style="shape=note;whiteSpace=wrap;html=1;backgroundOutline=1;darkOpacity=0.05;rotation=-91;" parent="_2UC7QPBTQOqAa1snjqE-12" vertex="1">
          <mxGeometry x="21.356202223272163" y="-16.022682548913213" width="106.28759555345573" height="123.04536509782636" as="geometry" />
        </mxCell>
        <mxCell id="_2UC7QPBTQOqAa1snjqE-14" value="&lt;font data-sider-select-id=&quot;ac3c47cb-9aac-4c60-aa73-1e2a86142721&quot; style=&quot;font-size: 11px;&quot;&gt;2.添加并修改&lt;/font&gt;&lt;div&gt;&lt;font data-sider-select-id=&quot;ac3c47cb-9aac-4c60-aa73-1e2a86142721&quot; style=&quot;font-size: 11px;&quot;&gt;user_config.yaml文件&lt;/font&gt;&lt;/div&gt;" style="text;strokeColor=none;fillColor=none;html=1;fontSize=24;fontStyle=1;verticalAlign=middle;align=center;" parent="_2UC7QPBTQOqAa1snjqE-12" vertex="1">
          <mxGeometry x="33.13868183291596" y="34.13729221071922" width="90.84409876363736" height="30.381571629092928" as="geometry" />
        </mxCell>
        <mxCell id="_2UC7QPBTQOqAa1snjqE-15" value="3.edp_ini" style="rounded=1;whiteSpace=wrap;html=1;" parent="1" vertex="1">
          <mxGeometry x="623" y="1181" width="120" height="60" as="geometry" />
        </mxCell>
        <mxCell id="_2UC7QPBTQOqAa1snjqE-16" value="5.edp -g" style="rounded=1;whiteSpace=wrap;html=1;fillColor=#858585;" parent="1" vertex="1">
          <mxGeometry x="826" y="1331" width="120" height="60" as="geometry" />
        </mxCell>
        <mxCell id="_2UC7QPBTQOqAa1snjqE-17" value="" style="shape=flexArrow;endArrow=classic;html=1;rounded=0;exitX=1;exitY=0.5;exitDx=0;exitDy=0;fillColor=#ADADAD;entryX=0;entryY=0.5;entryDx=0;entryDy=0;" parent="1" source="_2UC7QPBTQOqAa1snjqE-11" target="_2UC7QPBTQOqAa1snjqE-26" edge="1">
          <mxGeometry width="50" height="50" relative="1" as="geometry">
            <mxPoint x="423" y="1299" as="sourcePoint" />
            <mxPoint x="974" y="1281" as="targetPoint" />
          </mxGeometry>
        </mxCell>
        <mxCell id="_2UC7QPBTQOqAa1snjqE-18" value="" style="endArrow=classic;html=1;rounded=0;exitX=0;exitY=1;exitDx=0;exitDy=0;" parent="1" source="_2UC7QPBTQOqAa1snjqE-10" edge="1">
          <mxGeometry width="50" height="50" relative="1" as="geometry">
            <mxPoint x="693" y="1083" as="sourcePoint" />
            <mxPoint x="388" y="1282" as="targetPoint" />
          </mxGeometry>
        </mxCell>
        <mxCell id="_2UC7QPBTQOqAa1snjqE-19" value="" style="endArrow=classic;html=1;rounded=0;exitX=0;exitY=0;exitDx=54.17406896179715;exitDy=0;exitPerimeter=0;" parent="1" source="_2UC7QPBTQOqAa1snjqE-13" edge="1">
          <mxGeometry width="50" height="50" relative="1" as="geometry">
            <mxPoint x="693" y="1204" as="sourcePoint" />
            <mxPoint x="435" y="1290" as="targetPoint" />
          </mxGeometry>
        </mxCell>
        <mxCell id="_2UC7QPBTQOqAa1snjqE-20" value="" style="endArrow=classic;html=1;rounded=0;exitX=0.5;exitY=1;exitDx=0;exitDy=0;" parent="1" source="_2UC7QPBTQOqAa1snjqE-15" edge="1">
          <mxGeometry width="50" height="50" relative="1" as="geometry">
            <mxPoint x="693" y="1204" as="sourcePoint" />
            <mxPoint x="662" y="1276" as="targetPoint" />
          </mxGeometry>
        </mxCell>
        <mxCell id="_2UC7QPBTQOqAa1snjqE-21" value="" style="endArrow=classic;html=1;rounded=0;exitX=0;exitY=0;exitDx=0;exitDy=0;" parent="1" source="_2UC7QPBTQOqAa1snjqE-16" edge="1">
          <mxGeometry width="50" height="50" relative="1" as="geometry">
            <mxPoint x="693" y="1204" as="sourcePoint" />
            <mxPoint x="811" y="1290" as="targetPoint" />
          </mxGeometry>
        </mxCell>
        <mxCell id="_2UC7QPBTQOqAa1snjqE-22" value="生成make file文件" style="ellipse;whiteSpace=wrap;html=1;" parent="1" vertex="1">
          <mxGeometry x="916" y="1453" width="77" height="77" as="geometry" />
        </mxCell>
        <mxCell id="_2UC7QPBTQOqAa1snjqE-23" value="生成Flow目录" style="ellipse;whiteSpace=wrap;html=1;" parent="1" vertex="1">
          <mxGeometry x="749" y="1071" width="77" height="77" as="geometry" />
        </mxCell>
        <mxCell id="_2UC7QPBTQOqAa1snjqE-24" value="" style="endArrow=classic;html=1;rounded=0;exitX=0.75;exitY=0;exitDx=0;exitDy=0;entryX=0;entryY=1;entryDx=0;entryDy=0;" parent="1" source="_2UC7QPBTQOqAa1snjqE-15" target="_2UC7QPBTQOqAa1snjqE-23" edge="1">
          <mxGeometry width="50" height="50" relative="1" as="geometry">
            <mxPoint x="693" y="1326" as="sourcePoint" />
            <mxPoint x="743" y="1276" as="targetPoint" />
          </mxGeometry>
        </mxCell>
        <mxCell id="_2UC7QPBTQOqAa1snjqE-25" value="" style="endArrow=classic;html=1;rounded=0;exitX=0.5;exitY=1;exitDx=0;exitDy=0;" parent="1" source="_2UC7QPBTQOqAa1snjqE-16" target="_2UC7QPBTQOqAa1snjqE-22" edge="1">
          <mxGeometry width="50" height="50" relative="1" as="geometry">
            <mxPoint x="693" y="1326" as="sourcePoint" />
            <mxPoint x="743" y="1276" as="targetPoint" />
          </mxGeometry>
        </mxCell>
        <mxCell id="_2UC7QPBTQOqAa1snjqE-26" value="make" style="rounded=0;whiteSpace=wrap;html=1;" parent="1" vertex="1">
          <mxGeometry x="959" y="1265" width="37" height="38" as="geometry" />
        </mxCell>
        <mxCell id="_2UC7QPBTQOqAa1snjqE-27" value="" style="shape=curlyBracket;whiteSpace=wrap;html=1;rounded=1;labelPosition=left;verticalLabelPosition=middle;align=right;verticalAlign=middle;" parent="1" vertex="1">
          <mxGeometry x="1009" y="1185" width="20" height="299" as="geometry" />
        </mxCell>
        <mxCell id="_2UC7QPBTQOqAa1snjqE-29" value="4.cd Flow的main目录" style="rounded=1;whiteSpace=wrap;html=1;" parent="1" vertex="1">
          <mxGeometry x="672" y="1375" width="120" height="60" as="geometry" />
        </mxCell>
        <mxCell id="_2UC7QPBTQOqAa1snjqE-30" value="" style="endArrow=classic;html=1;rounded=0;exitX=0.5;exitY=0;exitDx=0;exitDy=0;" parent="1" source="_2UC7QPBTQOqAa1snjqE-29" edge="1">
          <mxGeometry width="50" height="50" relative="1" as="geometry">
            <mxPoint x="686" y="1323" as="sourcePoint" />
            <mxPoint x="759" y="1291" as="targetPoint" />
          </mxGeometry>
        </mxCell>
        <mxCell id="_2UC7QPBTQOqAa1snjqE-36" value="PR target" style="ellipse;shape=cloud;whiteSpace=wrap;html=1;" parent="1" vertex="1">
          <mxGeometry x="1033" y="1167" width="120" height="80" as="geometry" />
        </mxCell>
        <mxCell id="_2UC7QPBTQOqAa1snjqE-37" value="PV target" style="ellipse;shape=cloud;whiteSpace=wrap;html=1;" parent="1" vertex="1">
          <mxGeometry x="1029" y="1258" width="120" height="80" as="geometry" />
        </mxCell>
        <mxCell id="_2UC7QPBTQOqAa1snjqE-38" value="STA target" style="ellipse;shape=cloud;whiteSpace=wrap;html=1;" parent="1" vertex="1">
          <mxGeometry x="1026" y="1349" width="120" height="80" as="geometry" />
        </mxCell>
        <mxCell id="_2UC7QPBTQOqAa1snjqE-39" value="" style="endArrow=none;dashed=1;html=1;rounded=0;" parent="1" edge="1">
          <mxGeometry width="50" height="50" relative="1" as="geometry">
            <mxPoint x="1092" y="1484" as="sourcePoint" />
            <mxPoint x="1092" y="1440" as="targetPoint" />
          </mxGeometry>
        </mxCell>
        <mxCell id="fot1-dn6BqoBOH9BtjJu-8" style="edgeStyle=orthogonalEdgeStyle;rounded=0;orthogonalLoop=1;jettySize=auto;html=1;exitX=0;exitY=0.5;exitDx=0;exitDy=0;" parent="1" source="fot1-dn6BqoBOH9BtjJu-1" edge="1">
          <mxGeometry relative="1" as="geometry">
            <mxPoint x="291.3333740234375" y="1916" as="targetPoint" />
          </mxGeometry>
        </mxCell>
        <mxCell id="fot1-dn6BqoBOH9BtjJu-1" value="&amp;lt;flow&amp;gt;/config.yaml" style="rounded=0;whiteSpace=wrap;html=1;" parent="1" vertex="1">
          <mxGeometry x="306" y="1897" width="110" height="37" as="geometry" />
        </mxCell>
        <mxCell id="fot1-dn6BqoBOH9BtjJu-9" style="edgeStyle=orthogonalEdgeStyle;rounded=0;orthogonalLoop=1;jettySize=auto;html=1;exitX=0;exitY=0.5;exitDx=0;exitDy=0;" parent="1" source="fot1-dn6BqoBOH9BtjJu-2" edge="1">
          <mxGeometry relative="1" as="geometry">
            <mxPoint x="288.0000305175781" y="1980" as="targetPoint" />
          </mxGeometry>
        </mxCell>
        <mxCell id="fot1-dn6BqoBOH9BtjJu-2" value="flow_ini.yaml" style="rounded=0;whiteSpace=wrap;html=1;" parent="1" vertex="1">
          <mxGeometry x="306" y="1961" width="110" height="37" as="geometry" />
        </mxCell>
        <mxCell id="fot1-dn6BqoBOH9BtjJu-10" style="edgeStyle=orthogonalEdgeStyle;rounded=0;orthogonalLoop=1;jettySize=auto;html=1;exitX=0;exitY=0.5;exitDx=0;exitDy=0;" parent="1" source="fot1-dn6BqoBOH9BtjJu-3" edge="1">
          <mxGeometry relative="1" as="geometry">
            <mxPoint x="290.0000305175781" y="2043" as="targetPoint" />
          </mxGeometry>
        </mxCell>
        <mxCell id="fot1-dn6BqoBOH9BtjJu-3" value="main.yaml" style="rounded=0;whiteSpace=wrap;html=1;" parent="1" vertex="1">
          <mxGeometry x="306" y="2024" width="110" height="37" as="geometry" />
        </mxCell>
        <mxCell id="fot1-dn6BqoBOH9BtjJu-11" style="edgeStyle=orthogonalEdgeStyle;rounded=0;orthogonalLoop=1;jettySize=auto;html=1;exitX=0;exitY=0.5;exitDx=0;exitDy=0;" parent="1" source="fot1-dn6BqoBOH9BtjJu-4" edge="1">
          <mxGeometry relative="1" as="geometry">
            <mxPoint x="291" y="2113" as="targetPoint" />
          </mxGeometry>
        </mxCell>
        <mxCell id="fot1-dn6BqoBOH9BtjJu-4" value="setup.tcl" style="rounded=0;whiteSpace=wrap;html=1;" parent="1" vertex="1">
          <mxGeometry x="304" y="2095" width="110" height="37" as="geometry" />
        </mxCell>
        <mxCell id="fot1-dn6BqoBOH9BtjJu-12" style="edgeStyle=orthogonalEdgeStyle;rounded=0;orthogonalLoop=1;jettySize=auto;html=1;exitX=0;exitY=0.5;exitDx=0;exitDy=0;" parent="1" source="fot1-dn6BqoBOH9BtjJu-5" edge="1">
          <mxGeometry relative="1" as="geometry">
            <mxPoint x="290.66668701171875" y="2177" as="targetPoint" />
          </mxGeometry>
        </mxCell>
        <mxCell id="fot1-dn6BqoBOH9BtjJu-5" value="user_config.yaml" style="rounded=0;whiteSpace=wrap;html=1;" parent="1" vertex="1">
          <mxGeometry x="306" y="2158" width="110" height="37" as="geometry" />
        </mxCell>
        <mxCell id="fot1-dn6BqoBOH9BtjJu-6" value="full.tcl &amp;amp; full.yaml" style="rounded=0;whiteSpace=wrap;html=1;" parent="1" vertex="1">
          <mxGeometry x="232" y="2277" width="110" height="37" as="geometry" />
        </mxCell>
        <mxCell id="fot1-dn6BqoBOH9BtjJu-7" value="" style="shape=flexArrow;endArrow=classic;html=1;rounded=0;fillColor=#B3B3B3;" parent="1" edge="1">
          <mxGeometry width="50" height="50" relative="1" as="geometry">
            <mxPoint x="285" y="1897" as="sourcePoint" />
            <mxPoint x="285" y="2275" as="targetPoint" />
          </mxGeometry>
        </mxCell>
        <mxCell id="fot1-dn6BqoBOH9BtjJu-17" value="所有的变量" style="text;html=1;align=center;verticalAlign=middle;resizable=0;points=[];autosize=1;strokeColor=none;fillColor=none;" parent="1" vertex="1">
          <mxGeometry x="351" y="2282.5" width="78" height="26" as="geometry" />
        </mxCell>
        <mxCell id="fot1-dn6BqoBOH9BtjJu-18" value="跟工具有关的设置/Common的设置" style="text;html=1;align=center;verticalAlign=middle;resizable=0;points=[];autosize=1;strokeColor=none;fillColor=none;" parent="1" vertex="1">
          <mxGeometry x="432" y="1905" width="202" height="26" as="geometry" />
        </mxCell>
        <mxCell id="fot1-dn6BqoBOH9BtjJu-19" value="跟项目相关的设置" style="text;html=1;align=center;verticalAlign=middle;resizable=0;points=[];autosize=1;strokeColor=none;fillColor=none;" parent="1" vertex="1">
          <mxGeometry x="435" y="1966.5" width="114" height="26" as="geometry" />
        </mxCell>
        <mxCell id="fot1-dn6BqoBOH9BtjJu-20" value="预留做lib管理的" style="text;html=1;align=center;verticalAlign=middle;resizable=0;points=[];autosize=1;strokeColor=none;fillColor=none;" parent="1" vertex="1">
          <mxGeometry x="441" y="2029.5" width="102" height="26" as="geometry" />
        </mxCell>
        <mxCell id="fot1-dn6BqoBOH9BtjJu-21" value="用户所属的配置文件" style="text;html=1;align=center;verticalAlign=middle;resizable=0;points=[];autosize=1;strokeColor=none;fillColor=none;" parent="1" vertex="1">
          <mxGeometry x="432" y="2163.5" width="126" height="26" as="geometry" />
        </mxCell>
        <mxCell id="fot1-dn6BqoBOH9BtjJu-22" value="考虑到兼容性，预留的接口文件" style="text;html=1;align=center;verticalAlign=middle;resizable=0;points=[];autosize=1;strokeColor=none;fillColor=none;" parent="1" vertex="1">
          <mxGeometry x="434" y="2100.5" width="186" height="26" as="geometry" />
        </mxCell>
        <mxCell id="fot1-dn6BqoBOH9BtjJu-23" value="优先级" style="text;html=1;align=center;verticalAlign=middle;resizable=0;points=[];autosize=1;strokeColor=none;fillColor=none;" parent="1" vertex="1">
          <mxGeometry x="211" y="1897" width="54" height="26" as="geometry" />
        </mxCell>
        <mxCell id="fot1-dn6BqoBOH9BtjJu-24" value="低" style="text;html=1;align=center;verticalAlign=middle;resizable=0;points=[];autosize=1;strokeColor=none;fillColor=none;" parent="1" vertex="1">
          <mxGeometry x="217" y="1920" width="30" height="26" as="geometry" />
        </mxCell>
        <mxCell id="fot1-dn6BqoBOH9BtjJu-25" value="高" style="text;html=1;align=center;verticalAlign=middle;resizable=0;points=[];autosize=1;strokeColor=none;fillColor=none;" parent="1" vertex="1">
          <mxGeometry x="217" y="2158" width="30" height="26" as="geometry" />
        </mxCell>
        <mxCell id="fot1-dn6BqoBOH9BtjJu-26" value="" style="endArrow=classic;html=1;rounded=0;exitX=0.531;exitY=1.102;exitDx=0;exitDy=0;exitPerimeter=0;entryX=0.481;entryY=-0.105;entryDx=0;entryDy=0;entryPerimeter=0;" parent="1" source="fot1-dn6BqoBOH9BtjJu-24" target="fot1-dn6BqoBOH9BtjJu-25" edge="1">
          <mxGeometry width="50" height="50" relative="1" as="geometry">
            <mxPoint x="453" y="2124" as="sourcePoint" />
            <mxPoint x="503" y="2074" as="targetPoint" />
          </mxGeometry>
        </mxCell>
        <mxCell id="QrOHKRXQDqSgTOH32D2a-2" value="&lt;span style=&quot;font-size: 18px;&quot;&gt;gen_mmmc&lt;/span&gt;" style="text;html=1;align=center;verticalAlign=middle;resizable=0;points=[];autosize=1;strokeColor=none;fillColor=none;" parent="1" vertex="1">
          <mxGeometry x="1059" y="553" width="112" height="34" as="geometry" />
        </mxCell>
        <mxCell id="1Zt1AG3q7kdrJABkYCqZ-1" value="main =&amp;gt; gen_mmmc" style="rounded=0;whiteSpace=wrap;html=1;" parent="1" vertex="1">
          <mxGeometry x="92" y="2768" width="130" height="27" as="geometry" />
        </mxCell>
        <mxCell id="1Zt1AG3q7kdrJABkYCqZ-2" value="test_1 =&amp;gt; foorplan" style="rounded=0;whiteSpace=wrap;html=1;" parent="1" vertex="1">
          <mxGeometry x="277" y="2768" width="123" height="27" as="geometry" />
        </mxCell>
        <mxCell id="1Zt1AG3q7kdrJABkYCqZ-3" value="test_2 =&amp;gt; place" style="rounded=0;whiteSpace=wrap;html=1;" parent="1" vertex="1">
          <mxGeometry x="471" y="2768" width="112" height="27" as="geometry" />
        </mxCell>
        <mxCell id="1Zt1AG3q7kdrJABkYCqZ-8" value="mmmc" style="rounded=0;whiteSpace=wrap;html=1;" parent="1" vertex="1">
          <mxGeometry x="153" y="3088" width="63" height="37" as="geometry" />
        </mxCell>
        <mxCell id="1Zt1AG3q7kdrJABkYCqZ-9" value="floorplan" style="rounded=0;whiteSpace=wrap;html=1;" parent="1" vertex="1">
          <mxGeometry x="260" y="3088" width="63" height="37" as="geometry" />
        </mxCell>
        <mxCell id="1Zt1AG3q7kdrJABkYCqZ-10" value="place" style="rounded=0;whiteSpace=wrap;html=1;" parent="1" vertex="1">
          <mxGeometry x="369" y="3088" width="63" height="37" as="geometry" />
        </mxCell>
        <mxCell id="1Zt1AG3q7kdrJABkYCqZ-11" value="route" style="rounded=0;whiteSpace=wrap;html=1;" parent="1" vertex="1">
          <mxGeometry x="558" y="3088" width="63" height="37" as="geometry" />
        </mxCell>
        <mxCell id="1Zt1AG3q7kdrJABkYCqZ-12" value="cts" style="rounded=0;whiteSpace=wrap;html=1;" parent="1" vertex="1">
          <mxGeometry x="466" y="3088" width="63" height="37" as="geometry" />
        </mxCell>
      </root>
    </mxGraphModel>
  </diagram>
</mxfile>
